# xmcd CD database file
#
# Track frame offsets:
#	150
#	15556
#	32357
#	45416
#	61942
#	76834
#	90743
#	105216
#	115832
#	127788
#
# Disc length: 1944 seconds
#
# Revision: 0
# Processed by: cddbd v1.5.2PL0 Copyright (c) Steve Scherf et al.
# Submitted via: CDex 1.70beta2
#
DISCID=6007960a
DTITLE=Horton, Hank - Cdn. - MB - A World of Many Heartaches
DYEAR=2006
DGENRE=Country
TTITLE0=If They Only Knew(The Truth About You)
TTITLE1=Someone You Can Count On
TTITLE2=I Miss Your Arms Arround Me
TTITLE3=A World of Many Hearthaches
TTITLE4=The Life of A Truck Drivin' Man
TTITLE5=Someday We'll Be Togewther
TTITLE6=The Story of Hank Williams
TTITLE7=Daddy and Me
TTITLE8=No More Love Sick Blues
TTITLE9=Weepi' Water Falls
EXTD=YEAR: 2006
EXTT0=
EXTT1=
EXTT2=
EXTT3=
EXTT4=
EXTT5=
EXTT6=
EXTT7=
EXTT8=
EXTT9=
PLAYORDER=
